<svg xmlns="http://www.w3.org/2000/svg" width="157" height="40" viewBox="0 0 157 40" role="img" aria-label="Sunsetless">
  <defs>
    <linearGradient id="mark" gradientUnits="userSpaceOnUse" x1="59.590401" y1="141.6996" x2="217.30321" y2="141.6996"
      gradientTransform="matrix(0.22450969,0,0,-0.26740592,-12.360603,57.919315)">
      <stop offset="0" stop-color="#F7931E"/>
      <stop offset="0.2" stop-color="#E4572E"/>
      <stop offset="0.53171641" stop-color="#635BFF"/>
    </linearGradient>
    <linearGradient id="sunset" gradientUnits="userSpaceOnUse" x1="46.6" y1="0" x2="116.20" y2="0">
      <stop offset="0" stop-color="#F7931E"/>
      <stop offset="1" stop-color="#C2185B"/>
    </linearGradient>
  </defs>
  <path fill="url(#mark)" d="m 35.530184,25.208885 c -1.713908,3.196302 -4.961216,4.98204 -8.116699,4.349892 -2.336921,-0.468227 -3.998068,-2.535811 -5.751489,-4.247209 -1.713234,-1.672356 -7.856268,-7.841409 -8.383865,-8.397882 -1.254336,-1.323124 -2.844089,-2.738503 -4.6125524,-2.738503 -2.708035,0 -4.911374,2.624054 -4.911374,5.849503 0,1.988431 0.974148,3.881932 2.348597,4.965194 0.846847,0.667712 1.709866,0.88351 2.556267,0.796603 1.4528014,-0.148946 2.8571094,-1.18862 4.0508284,-2.363066 0.997495,-0.981647 1.991176,-1.966239 2.984407,-2.951628 l 2.479261,2.419756 c -0.826421,0.806765 -1.652841,1.613261 -2.479261,2.420023 -1.753646,1.711666 -3.414568,3.778982 -5.7514894,4.247209 -3.155711,0.632148 -6.402794,-1.153321 -8.116702,-4.349892 -0.82709301,-1.542664 -1.26982501,-3.354071 -1.26982501,-5.184467 0,-4.882564 3.20330401,-9.115598 7.28421501,-9.60923 2.3578044,-0.285323 4.7643234,0.827621 6.4820464,2.73663 1.982647,2.203427 4.134572,4.156561 6.223185,6.21291 0.08531,0.08395 0.170627,0.168466 0.255941,0.252968 1.279929,1.27098 2.560085,2.541425 3.844729,3.805452 1.193493,1.174445 2.598025,2.214122 4.050828,2.363066 0.8464,0.08664 1.709191,-0.128889 2.556266,-0.796602 1.374224,-1.083527 2.348596,-2.976764 2.348596,-4.965194 0,-2.841186 -1.903169,-5.336885 -4.232906,-5.791743 -1.208085,-0.235851 -2.439071,0.127283 -3.40626,1.023094 -1.46066,1.352807 -2.862948,2.827551 -4.296443,4.226618 -0.266492,-0.264464 -0.534107,-0.528126 -0.800601,-0.792592 -0.557008,-0.553263 -1.120752,-1.112673 -1.686966,-1.67396 1.165431,-1.154391 2.33288,-2.307444 3.507964,-3.454348 2.640459,-2.577258 5.639459,-4.1124351 9.004635,-2.510408 2.826577,1.345586 4.835041,4.567828 5.082001,8.183691 0.01797,0.262593 0.02672,0.526256 0.02672,0.789916 -2.24e-4,1.82986 -0.442957,3.641535 -1.270051,5.184199 z"/>
  <path fill="url(#sunset)" d="M53.319 27.965L53.319 27.965Q51.746 27.965 50.482 27.421Q49.219 26.878 48.402 25.869Q47.585 24.859 47.341 23.468L47.341 23.468L49.554 23.133Q49.889 24.473 50.954 25.219Q52.020 25.965 53.441 25.965L53.441 25.965Q54.324 25.965 55.065 25.686Q55.806 25.407 56.258 24.884Q56.709 24.361 56.709 23.630L56.709 23.630Q56.709 23.235 56.572 22.930Q56.435 22.626 56.197 22.397Q55.958 22.169 55.618 22.001Q55.278 21.834 54.872 21.712L54.872 21.712L51.127 20.606Q50.579 20.443 50.010 20.185Q49.442 19.926 48.970 19.504Q48.498 19.083 48.204 18.459Q47.909 17.835 47.909 16.942L47.909 16.942Q47.909 15.592 48.605 14.653Q49.300 13.714 50.487 13.232Q51.675 12.750 53.147 12.750L53.147 12.750Q54.629 12.770 55.801 13.277Q56.973 13.785 57.750 14.734Q58.526 15.683 58.821 17.033L58.821 17.033L56.547 17.419Q56.395 16.596 55.897 16.003Q55.400 15.409 54.679 15.089Q53.959 14.769 53.116 14.759L53.116 14.759Q52.304 14.739 51.629 15.003Q50.954 15.267 50.553 15.744Q50.153 16.221 50.153 16.840L50.153 16.840Q50.153 17.449 50.508 17.825Q50.863 18.200 51.386 18.418Q51.908 18.637 52.426 18.779L52.426 18.779L55.126 19.540Q55.633 19.682 56.278 19.921Q56.923 20.159 57.526 20.585Q58.130 21.012 58.526 21.717Q58.922 22.423 58.922 23.488L58.922 23.488Q58.922 24.595 58.476 25.432Q58.029 26.269 57.252 26.833Q56.476 27.396 55.461 27.680Q54.446 27.965 53.319 27.965ZM65.215 27.954L65.215 27.954Q64.078 27.954 63.307 27.589Q62.535 27.224 62.053 26.630Q61.571 26.036 61.317 25.336Q61.064 24.635 60.972 23.965Q60.881 23.296 60.881 22.788L60.881 22.788L60.881 16.698L63.033 16.698L63.033 22.088Q63.033 22.727 63.139 23.402Q63.246 24.077 63.545 24.656Q63.845 25.234 64.388 25.589Q64.931 25.945 65.804 25.945L65.804 25.945Q66.372 25.945 66.880 25.757Q67.387 25.569 67.768 25.153Q68.148 24.737 68.367 24.057Q68.585 23.377 68.585 22.402L68.585 22.402L68.585 16.698L70.727 16.698L70.727 27.660L68.839 27.660L68.839 26.340Q68.382 26.919 67.742 27.315L67.742 27.315Q66.697 27.954 65.215 27.954ZM83.414 27.660L81.262 27.660L81.262 22.270Q81.262 21.631 81.156 20.956Q81.049 20.281 80.750 19.702Q80.450 19.124 79.907 18.769Q79.364 18.413 78.491 18.413L78.491 18.413Q77.923 18.413 77.415 18.601Q76.908 18.789 76.527 19.205Q76.147 19.621 75.928 20.301Q75.710 20.981 75.710 21.956L75.710 21.956L75.710 27.660L73.558 27.660L73.558 16.698L75.456 16.698L75.456 18.017Q75.913 17.439 76.553 17.043L76.553 17.043Q77.598 16.404 79.080 16.404L79.080 16.404Q80.217 16.404 80.988 16.769Q81.760 17.134 82.242 17.728Q82.724 18.322 82.978 19.022Q83.231 19.723 83.323 20.393Q83.414 21.063 83.414 21.570L83.414 21.570L83.414 27.660ZM90.245 27.954L90.245 27.954Q88.245 27.954 86.987 27.071Q85.728 26.188 85.444 24.585L85.444 24.585L87.616 24.250Q87.819 25.102 88.555 25.594Q89.291 26.087 90.387 26.087L90.387 26.087Q91.382 26.087 91.945 25.681Q92.508 25.275 92.508 24.564L92.508 24.564Q92.508 24.148 92.311 23.889Q92.113 23.630 91.483 23.397Q90.854 23.164 89.565 22.818L89.565 22.818Q88.154 22.453 87.327 22.032Q86.500 21.611 86.149 21.047Q85.799 20.484 85.799 19.682L85.799 19.682Q85.799 18.687 86.327 17.946Q86.855 17.206 87.814 16.799Q88.773 16.393 90.062 16.393L90.062 16.393Q91.321 16.393 92.305 16.789Q93.290 17.185 93.899 17.911Q94.508 18.637 94.630 19.611L94.630 19.611L92.458 20.007Q92.346 19.215 91.717 18.758Q91.087 18.302 90.083 18.261L90.083 18.261Q89.118 18.221 88.519 18.581Q87.921 18.941 87.921 19.570L87.921 19.570Q87.921 19.936 88.149 20.190Q88.377 20.443 89.037 20.677Q89.697 20.910 90.986 21.235L90.986 21.235Q92.366 21.590 93.178 22.022Q93.990 22.453 94.341 23.047Q94.691 23.641 94.691 24.483L94.691 24.483Q94.691 26.107 93.508 27.031Q92.326 27.954 90.245 27.954ZM101.796 27.965L101.796 27.965Q100.162 27.965 98.928 27.249Q97.695 26.533 97.010 25.249Q96.325 23.965 96.325 22.270L96.325 22.270Q96.325 20.474 97.000 19.154Q97.675 17.835 98.883 17.114Q100.090 16.393 101.694 16.393L101.694 16.393Q103.369 16.393 104.546 17.170Q105.724 17.946 106.307 19.378Q106.891 20.809 106.769 22.778L106.769 22.778L98.598 22.778Q98.720 24.158 99.380 24.970L99.380 24.970Q100.182 25.965 101.694 25.965L101.694 25.965Q102.689 25.965 103.415 25.513Q104.140 25.062 104.546 24.219L104.546 24.219L106.627 24.879Q105.988 26.351 104.688 27.158Q103.389 27.965 101.796 27.965ZM98.649 21.123L104.597 21.123Q104.455 19.875 103.927 19.185L103.927 19.185Q103.217 18.271 101.775 18.271L101.775 18.271Q100.182 18.271 99.380 19.276L99.380 19.276Q98.822 19.976 98.649 21.123L98.649 21.123ZM115.316 25.863L115.316 27.660Q114.280 27.863 113.285 27.833Q112.291 27.802 111.509 27.447Q110.728 27.092 110.332 26.330L110.332 26.330Q109.977 25.650 109.951 24.945Q109.926 24.239 109.926 23.346L109.926 23.346L109.926 18.403L107.825 18.403L107.825 16.698L109.926 16.698L109.926 13.653L112.057 13.653L112.057 16.698L115.316 16.698L115.316 18.403L112.057 18.403L112.057 23.245Q112.057 23.904 112.073 24.392Q112.088 24.879 112.281 25.214L112.281 25.214Q112.646 25.843 113.443 25.929Q114.240 26.016 115.316 25.863L115.316 25.863Z"/>
  <path fill="#635BFF" d="M119.944 27.660L117.823 27.660L117.823 12.739L119.944 12.739L119.944 27.660ZM127.851 27.965L127.851 27.965Q126.217 27.965 124.983 27.249Q123.750 26.533 123.065 25.249Q122.380 23.965 122.380 22.270L122.380 22.270Q122.380 20.474 123.055 19.154Q123.730 17.835 124.938 17.114Q126.146 16.393 127.749 16.393L127.749 16.393Q129.424 16.393 130.601 17.170Q131.779 17.946 132.362 19.378Q132.946 20.809 132.824 22.778L132.824 22.778L124.653 22.778Q124.775 24.158 125.435 24.970L125.435 24.970Q126.237 25.965 127.749 25.965L127.749 25.965Q128.744 25.965 129.470 25.513Q130.195 25.062 130.601 24.219L130.601 24.219L132.682 24.879Q132.043 26.351 130.743 27.158Q129.444 27.965 127.851 27.965ZM124.704 21.123L130.652 21.123Q130.510 19.875 129.982 19.185L129.982 19.185Q129.272 18.271 127.830 18.271L127.830 18.271Q126.237 18.271 125.435 19.276L125.435 19.276Q124.877 19.976 124.704 21.123L124.704 21.123ZM139.290 27.954L139.290 27.954Q137.290 27.954 136.032 27.071Q134.773 26.188 134.489 24.585L134.489 24.585L136.661 24.250Q136.864 25.102 137.600 25.594Q138.336 26.087 139.432 26.087L139.432 26.087Q140.427 26.087 140.990 25.681Q141.553 25.275 141.553 24.564L141.553 24.564Q141.553 24.148 141.355 23.889Q141.157 23.630 140.528 23.397Q139.899 23.164 138.610 22.818L138.610 22.818Q137.199 22.453 136.372 22.032Q135.544 21.611 135.194 21.047Q134.844 20.484 134.844 19.682L134.844 19.682Q134.844 18.687 135.372 17.946Q135.900 17.206 136.859 16.799Q137.818 16.393 139.107 16.393L139.107 16.393Q140.366 16.393 141.350 16.789Q142.335 17.185 142.944 17.911Q143.553 18.637 143.675 19.611L143.675 19.611L141.502 20.007Q141.391 19.215 140.762 18.758Q140.132 18.302 139.127 18.261L139.127 18.261Q138.163 18.221 137.564 18.581Q136.965 18.941 136.965 19.570L136.965 19.570Q136.965 19.936 137.194 20.190Q137.422 20.443 138.082 20.677Q138.742 20.910 140.031 21.235L140.031 21.235Q141.411 21.590 142.223 22.022Q143.035 22.453 143.385 23.047Q143.736 23.641 143.736 24.483L143.736 24.483Q143.736 26.107 142.553 27.031Q141.371 27.954 139.290 27.954ZM150.171 27.954L150.171 27.954Q148.171 27.954 146.912 27.071Q145.654 26.188 145.370 24.585L145.370 24.585L147.542 24.250Q147.745 25.102 148.481 25.594Q149.216 26.087 150.313 26.087L150.313 26.087Q151.307 26.087 151.871 25.681Q152.434 25.275 152.434 24.564L152.434 24.564Q152.434 24.148 152.236 23.889Q152.038 23.630 151.409 23.397Q150.780 23.164 149.491 22.818L149.491 22.818Q148.080 22.453 147.252 22.032Q146.425 21.611 146.075 21.047Q145.725 20.484 145.725 19.682L145.725 19.682Q145.725 18.687 146.253 17.946Q146.780 17.206 147.740 16.799Q148.699 16.393 149.988 16.393L149.988 16.393Q151.246 16.393 152.231 16.789Q153.216 17.185 153.825 17.911Q154.434 18.637 154.555 19.611L154.555 19.611L152.383 20.007Q152.272 19.215 151.642 18.758Q151.013 18.302 150.008 18.261L150.008 18.261Q149.044 18.221 148.445 18.581Q147.846 18.941 147.846 19.570L147.846 19.570Q147.846 19.936 148.075 20.190Q148.303 20.443 148.963 20.677Q149.623 20.910 150.912 21.235L150.912 21.235Q152.292 21.590 153.104 22.022Q153.916 22.453 154.266 23.047Q154.616 23.641 154.616 24.483L154.616 24.483Q154.616 26.107 153.434 27.031Q152.251 27.954 150.171 27.954Z"/>
</svg>
